<?xml version="1.0" encoding="UTF-8"?>
<svg id="Layer_2" data-name="Layer 2" xmlns="http://www.w3.org/2000/svg" viewBox="0 0 200 200">
    <defs>
        <style>
            .cls-1 {
            fill: #5c983b;
            }

            .cls-1, .cls-2 {
            stroke: #25632c;
            stroke-linecap: round;
            stroke-miterlimit: 10;
            stroke-width: 5px;
            }

            .cls-2 {
            fill: none;
            }
        </style>
    </defs>
    <g
            transform="rotate(45 50 150)"
    >
    <path class="cls-1" d="M54.18,7.71l-26,9.08c-.41.14-.68.54-.68.99v36.53c0,.28.11.54.29.74l26,27.24c.39.41,1.02.41,1.41,0l26-27.24c.19-.2.29-.46.29-.74V17.79c0-.45-.28-.85-.68-.99l-26-9.08c-.21-.07-.43-.07-.63,0Z"/>
    <polyline class="cls-2" points="27.5 42.44 54.5 69.44 81.5 42.44"/>
    <polyline class="cls-2" points="27.5 17.1 54.5 44.1 81.5 17.1"/>
    <polyline class="cls-2" points="27.5 29.77 54.5 56.77 81.5 29.77"/>
    <line class="cls-2" x1="54.5" y1="147.76" x2="54.5" y2="9.67"/>
    <rect class="cls-1" x="2.5" y="12.35" width="18" height="48" rx="9" ry="9"/>
    <rect class="cls-1" x="88.5" y="12.35" width="18" height="48" rx="9" ry="9"/>
    </g>
</svg>